<svg width="52" height="52" viewBox="0 0 52 52" fill="none" xmlns="http://www.w3.org/2000/svg">
<g clip-path="url(#clip0)">
<rect x="13.5459" y="4.54205" width="31.1873" height="47.0462" fill="white"/>
<path d="M44.3184 0.506409H7.59876C3.85786 0.506409 0.825134 3.58816 0.825134 7.3898V44.7047C0.825134 48.5063 3.85774 51.5881 7.59876 51.5881H25.7087L25.7396 33.3342H21.0728C20.4664 33.3342 19.9741 32.8359 19.9718 32.2196L19.9494 26.3356C19.9471 25.716 20.4408 25.2124 21.0506 25.2124H25.7088V19.527C25.7088 12.9291 29.6741 9.33654 35.466 9.33654H40.2186C40.8267 9.33654 41.3198 9.8375 41.3198 10.4556V15.4169C41.3198 16.0347 40.8271 16.5356 40.2193 16.536L37.3026 16.5373C34.1528 16.5373 33.5429 18.0583 33.5429 20.2905V25.2125H40.4641C41.1236 25.2125 41.6352 25.7977 41.5575 26.4632L40.8712 32.3472C40.8056 32.9103 40.3357 33.3345 39.7778 33.3345H33.5738L33.5429 51.5883H44.3186C48.0595 51.5883 51.0921 48.5066 51.0921 44.7051V7.3898C51.092 3.58816 48.0594 0.506409 44.3184 0.506409Z" fill="#475993"/>
</g>
<defs>
<clipPath id="clip0">
<rect width="50.2673" height="51.0819" fill="white" transform="translate(0.824219 0.506409)"/>
</clipPath>
</defs>
</svg>
