<svg width="51" height="52" viewBox="0 0 51 52" fill="none" xmlns="http://www.w3.org/2000/svg">
<rect x="5.2085" y="4.65717" width="40.8035" height="43.1206" rx="7" fill="white"/>
<path d="M35.7151 0.506409H15.5056C7.29234 0.506409 0.610352 7.33298 0.610352 15.724V36.3707C0.610352 44.7617 7.29234 51.5883 15.5056 51.5883H35.7151C43.9284 51.5883 50.6104 44.7617 50.6104 36.3707V15.724C50.6103 7.33298 43.9283 0.506409 35.7151 0.506409ZM45.5804 36.3707C45.5804 41.937 41.1635 46.4495 35.7151 46.4495H15.5056C10.0572 46.4495 5.64035 41.937 5.64035 36.3707V15.724C5.64035 10.1576 10.0572 5.64525 15.5056 5.64525H35.7151C41.1635 5.64525 45.5804 10.1576 45.5804 15.724V36.3707Z" fill="url(#paint0_linear)"/>
<path d="M25.6104 12.8358C18.4798 12.8358 12.6786 18.7625 12.6786 26.0473C12.6786 33.332 18.4798 39.2589 25.6104 39.2589C32.7409 39.2589 38.5421 33.3321 38.5421 26.0473C38.5421 18.7624 32.7409 12.8358 25.6104 12.8358ZM25.6104 34.1201C21.2463 34.1201 17.7086 30.5058 17.7086 26.0473C17.7086 21.5889 21.2464 17.9746 25.6104 17.9746C29.9744 17.9746 33.5121 21.5889 33.5121 26.0473C33.5121 30.5058 29.9743 34.1201 25.6104 34.1201Z" fill="url(#paint1_linear)"/>
<path d="M38.5672 16.1008C40.2786 16.1008 41.666 14.6834 41.666 12.935C41.666 11.1866 40.2786 9.76923 38.5672 9.76923C36.8559 9.76923 35.4685 11.1866 35.4685 12.935C35.4685 14.6834 36.8559 16.1008 38.5672 16.1008Z" fill="url(#paint2_linear)"/>
<defs>
<linearGradient id="paint0_linear" x1="25.6104" y1="51.4396" x2="25.6104" y2="0.903171" gradientUnits="userSpaceOnUse">
<stop stop-color="#E09B3D"/>
<stop offset="0.3" stop-color="#C74C4D"/>
<stop offset="0.6" stop-color="#C21975"/>
<stop offset="1" stop-color="#7024C4"/>
</linearGradient>
<linearGradient id="paint1_linear" x1="25.6104" y1="51.4396" x2="25.6104" y2="0.903168" gradientUnits="userSpaceOnUse">
<stop stop-color="#E09B3D"/>
<stop offset="0.3" stop-color="#C74C4D"/>
<stop offset="0.6" stop-color="#C21975"/>
<stop offset="1" stop-color="#7024C4"/>
</linearGradient>
<linearGradient id="paint2_linear" x1="38.5672" y1="51.4397" x2="38.5672" y2="0.903214" gradientUnits="userSpaceOnUse">
<stop stop-color="#E09B3D"/>
<stop offset="0.3" stop-color="#C74C4D"/>
<stop offset="0.6" stop-color="#C21975"/>
<stop offset="1" stop-color="#7024C4"/>
</linearGradient>
</defs>
</svg>
