<svg width="59" height="61" viewBox="0 0 59 61" fill="none" xmlns="http://www.w3.org/2000/svg">
<g clip-path="url(#clip0)">
<rect x="17.9716" y="16.2037" width="22.5222" height="25.3632" fill="white"/>
<path d="M46.754 8.81866H12.351C5.60118 8.81866 0.129395 14.3977 0.129395 21.2799V38.8149C0.129395 45.6971 5.60118 51.2762 12.351 51.2762H46.754C53.5038 51.2762 58.9755 45.6971 58.9755 38.8149V21.2799C58.9755 14.3977 53.5038 8.81866 46.754 8.81866ZM38.4886 30.9006L22.3972 38.7257C21.9684 38.9342 21.4731 38.6154 21.4731 38.1311V21.9918C21.4731 21.5006 21.9814 21.1823 22.4111 21.4043L38.5025 29.7185C38.9809 29.9657 38.9726 30.6653 38.4886 30.9006Z" fill="#F61C0D"/>
</g>
<defs>
<clipPath id="clip0">
<rect width="58.8462" height="60" fill="white" transform="translate(0.129395 0.0473633)"/>
</clipPath>
</defs>
</svg>
